<svg width="136" height="70" viewBox="0 0 136 70" fill="none" xmlns="http://www.w3.org/2000/svg">
<path d="M1.776 43V25.96H9C9.784 25.96 10.504 26.12 11.16 26.44C11.816 26.76 12.384 27.192 12.864 27.736C13.36 28.28 13.744 28.888 14.016 29.56C14.288 30.232 14.424 30.92 14.424 31.624C14.424 32.584 14.2 33.496 13.752 34.36C13.304 35.224 12.688 35.928 11.904 36.472C11.12 37.016 10.192 37.288 9.12 37.288H5.088V43H1.776ZM5.088 34.384H8.928C9.328 34.384 9.688 34.272 10.008 34.048C10.328 33.824 10.584 33.504 10.776 33.088C10.968 32.656 11.064 32.168 11.064 31.624C11.064 31.032 10.952 30.528 10.728 30.112C10.52 29.696 10.24 29.384 9.888 29.176C9.552 28.968 9.184 28.864 8.784 28.864H5.088V34.384ZM25.7205 25.96H29.0805L35.3445 43H31.9365L30.3525 38.752H24.4005L22.8405 43H19.4325L25.7205 25.96ZM29.7525 36.424L27.4005 29.392L24.9525 36.424H29.7525ZM43.2585 25.96L47.4585 33.976L51.7305 25.96H55.3065L49.1145 37.048V43H45.8265V37L39.6585 25.96H43.2585Z" fill="#1E1E1E"/>
<circle cx="101" cy="35" r="35" fill="#35C56E"/>
<path d="M74.776 43V25.96H78.088V40.096H86.776V43H74.776ZM97.7127 25.96H101.073L107.337 43H103.929L102.345 38.752H96.3927L94.8327 43H91.4247L97.7127 25.96ZM101.745 36.424L99.3927 29.392L96.9447 36.424H101.745ZM115.251 25.96L119.451 33.976L123.723 25.96H127.299L121.107 37.048V43H117.819V37L111.651 25.96H115.251Z" fill="white"/>
</svg>
